<svg xmlns="http://www.w3.org/2000/svg" version="1.1" xmlns:xlink="http://www.w3.org/1999/xlink" width="40" height="40"><svg viewBox="0 0 40 40" fill="none" xmlns="http://www.w3.org/2000/svg">
  <!-- White background -->
  <rect width="40" height="40" rx="4" fill="white"></rect>
  
  <!-- Kanban board columns with progressive opacity -->
  <rect x="4" y="6" width="6" height="28" rx="1" fill="#1a1a1a" opacity="0.3"></rect>
  <rect x="13" y="6" width="6" height="28" rx="1" fill="#1a1a1a" opacity="0.6"></rect>
  <rect x="22" y="6" width="6" height="28" rx="1" fill="#1a1a1a" opacity="0.9"></rect>
  <rect x="31" y="6" width="6" height="28" rx="1" fill="#1a1a1a"></rect>
  
  <!-- Task cards in columns -->
  <rect x="5" y="8" width="4" height="6" rx="0.5" fill="#1a1a1a" opacity="0.4"></rect>
  <rect x="5" y="16" width="4" height="6" rx="0.5" fill="#1a1a1a" opacity="0.4"></rect>
  <rect x="14" y="8" width="4" height="8" rx="0.5" fill="#1a1a1a" opacity="0.7"></rect>
  <rect x="14" y="18" width="4" height="6" rx="0.5" fill="#1a1a1a" opacity="0.7"></rect>
  <rect x="23" y="8" width="4" height="10" rx="0.5" fill="#1a1a1a" opacity="0.95"></rect>
  <rect x="32" y="8" width="4" height="12" rx="0.5" fill="#1a1a1a"></rect>
  <rect x="32" y="22" width="4" height="6" rx="0.5" fill="#1a1a1a"></rect>
</svg><style>@media (prefers-color-scheme: light) { :root { filter: none; } }
@media (prefers-color-scheme: dark) { :root { filter: none; } }
</style></svg>